<svg width="1024" height="539" viewBox="0 0 1107 739" fill="none" xmlns="http://www.w3.org/2000/svg">
<path d="M1 185.5V738" stroke="#ffffff21" stroke-width="1.15104" stroke-miterlimit="10"/>
<path d="M93.084 185.5V738" stroke="#ffffff21" stroke-width="1.15104" stroke-miterlimit="10"/>
<path d="M185.166 185.5V738" stroke="#ffffff21" stroke-width="1.15104" stroke-miterlimit="10"/>
<path d="M277.25 1.33325V738" stroke="#ffffff21" stroke-width="1.15104" stroke-miterlimit="10"/>
<path d="M369.334 1.33325V738" stroke="#ffffff21" stroke-width="1.15104" stroke-miterlimit="10"/>
<path d="M461.416 1.33325V738" stroke="#ffffff21" stroke-width="1.15104" stroke-miterlimit="10"/>
<path d="M553.5 1.33325V738" stroke="#ffffff21" stroke-width="1.15104" stroke-miterlimit="10"/>
<path d="M645.584 1.33325V738" stroke="#ffffff21" stroke-width="1.15104" stroke-miterlimit="10"/>
<path d="M737.666 1.33325V738" stroke="#ffffff21" stroke-width="1.15104" stroke-miterlimit="10"/>
<path d="M829.75 1.33325V738" stroke="#ffffff21" stroke-width="1.15104" stroke-miterlimit="10"/>
<path d="M921.834 1.33325V738" stroke="#ffffff21" stroke-width="1.15104" stroke-miterlimit="10"/>
<path d="M1013.92 1.33325V553.833" stroke="#ffffff21" stroke-width="1.15104" stroke-miterlimit="10"/>
<path d="M1106 1.33325V553.833" stroke="#ffffff21" stroke-width="1.15104" stroke-miterlimit="10"/>
<path d="M1 738H921.833" stroke="#ffffff21" stroke-width="1.15104" stroke-miterlimit="10"/>
<path d="M1 645.917H921.833" stroke="#ffffff21" stroke-width="1.15104" stroke-miterlimit="10"/>
<path d="M1 553.833H1106" stroke="#ffffff21" stroke-width="1.15104" stroke-miterlimit="10"/>
<path d="M1 461.75H1106" stroke="#ffffff21" stroke-width="1.15104" stroke-miterlimit="10"/>
<path d="M1 369.667H1106" stroke="#ffffff21" stroke-width="1.15104" stroke-miterlimit="10"/>
<path d="M1 277.583H1106" stroke="#ffffff21" stroke-width="1.15104" stroke-miterlimit="10"/>
<path d="M1 185.5H1106" stroke="#ffffff21" stroke-width="1.15104" stroke-miterlimit="10"/>
<path d="M277.25 93.4167H1106" stroke="#ffffff21" stroke-width="1.15104" stroke-miterlimit="10"/>
<path d="M277.25 1.33325H1106" stroke="#ffffff21" stroke-width="1.15104" stroke-miterlimit="10"/>
</svg>
